<?xml version="1.0" encoding="utf-8"?>
<!-- Generator: Adobe Illustrator 25.4.1, SVG Export Plug-In . SVG Version: 6.00 Build 0)  -->
<svg version="1.1" id="Layer_1" xmlns="http://www.w3.org/2000/svg" xmlns:xlink="http://www.w3.org/1999/xlink" x="0px" y="0px"
	 viewBox="0 0 566.9 566.9" style="enable-background:new 0 0 566.9 566.9;" xml:space="preserve">
<style type="text/css">
	.st0{fill:none;stroke:#EB5658;stroke-width:28;stroke-miterlimit:10;}
	.st1{fill:#EB5658;}
</style>
<circle class="st0" cx="283.5" cy="277.6" r="222.4"/>
<path class="st1" d="M392.2,254h-85.2v-85.2c0-13-10.6-23.6-23.6-23.6h0c-13,0-23.6,10.6-23.6,23.6V254h-85.2
	c-13,0-23.6,10.6-23.6,23.6v0c0,13,10.6,23.6,23.6,23.6h85.2v85.2c0,13,10.6,23.6,23.6,23.6h0c13,0,23.6-10.6,23.6-23.6v-85.2h85.2
	c13,0,23.6-10.6,23.6-23.6v0C415.8,264.6,405.3,254,392.2,254z"/>
</svg>
