<?xml version="1.0" encoding="utf-8"?>
<!-- Generator: Adobe Illustrator 24.3.0, SVG Export Plug-In . SVG Version: 6.00 Build 0)  -->
<svg version="1.1" id="Layer_1" xmlns="http://www.w3.org/2000/svg" xmlns:xlink="http://www.w3.org/1999/xlink" x="0px" y="0px"
	 viewBox="0 0 24 24" style="enable-background:new 0 0 24 24;" xml:space="preserve">
<style type="text/css">
	.st0{fill:#EC696C;}
</style>
<path class="st0" d="M21.1,0H2.9C1.3,0,0,1.3,0,2.9v18.2C0,22.7,1.3,24,2.9,24h18.2c1.6,0,2.9-1.3,2.9-2.9V2.9C24,1.3,22.7,0,21.1,0
	z M20.7,5.8l-10,11.5l-0.1,0.1c-0.7,0.9-2,1-2.9,0.2c-0.1-0.1-0.2-0.2-0.3-0.3l-4.2-5.6c-0.4-0.6-0.3-1.4,0.3-1.9
	c0.5-0.4,1.1-0.3,1.6,0L9,12.7l10-8.6c0.5-0.4,1.3-0.4,1.7,0.1C21.1,4.7,21.1,5.3,20.7,5.8z"/>
</svg>
